<svg width="18" height="16" viewBox="0 0 18 16" fill="none" xmlns="http://www.w3.org/2000/svg">
<g clip-path="url(#clip0)">
<path d="M16.0327 5.26646H15.4917C15.0983 5.26646 14.754 4.96552 14.6556 4.56426C14.0655 1.95611 11.754 0 8.9999 0C6.2458 0 3.98351 1.95611 3.39335 4.56426C3.29499 4.96552 2.95072 5.26646 2.55728 5.26646H2.0163C0.98351 5.26646 0.0982642 6.01881 -9.64026e-05 7.02194C-0.0984571 8.17555 0.786789 9.17868 1.91794 9.17868H16.0819C17.213 9.17868 18.0983 8.17555 17.9999 7.02194C17.9015 6.01881 17.0163 5.26646 16.0327 5.26646Z" fill="#0052B0"/>
<path d="M6.58995 16H5.99979C5.2129 16 4.4752 15.4984 4.18012 14.7461L2.75389 10.9843C2.60634 10.6332 2.85225 10.2821 3.19651 10.2821H5.85225C6.09815 10.2821 6.29487 10.4827 6.34405 10.6834L7.08175 15.3981C7.08175 15.699 6.88503 16 6.58995 16Z" fill="#0052B0"/>
<path d="M9.98332 16H8.36037C8.11447 16 7.91775 15.7993 7.86857 15.5486L7.32759 10.8338C7.27841 10.5329 7.52431 10.2821 7.81939 10.2821H10.4751C10.7702 10.2821 11.0161 10.5329 10.9669 10.8338L10.4751 15.5486C10.4259 15.7993 10.2292 16 9.98332 16Z" fill="#0052B0"/>
<path d="M12.3441 16H11.754C11.4589 16 11.213 15.699 11.2622 15.3981L11.9999 10.6834C12.049 10.4326 12.2458 10.2821 12.4917 10.2821H15.1474C15.4917 10.2821 15.7376 10.6332 15.59 10.9843L14.1638 14.7461C13.8687 15.4984 13.131 16 12.3441 16Z" fill="#0052B0"/>
</g>
<defs>
<clipPath id="clip0">
<rect width="18" height="16" fill="white"/>
</clipPath>
</defs>
</svg>
