<svg width="18" height="18" viewBox="0 0 18 18" fill="none" xmlns="http://www.w3.org/2000/svg">
<rect width="18" height="18" fill="#DBDBDB"/>
<rect width="1440" height="900" transform="translate(-74 -514)" fill="#F2F3F5"/>
<rect x="-21.5" y="-14.5" width="327" height="96" rx="11.5" fill="white" stroke="#E3E3E3"/>
<path fill-rule="evenodd" clip-rule="evenodd" d="M9 18C13.968 18 18 13.968 18 9C18 4.032 13.968 -2.25984e-06 9 -2.69415e-06C4.032 -3.12847e-06 -6.86227e-07 4.032 -1.12054e-06 9C-1.55486e-06 13.968 4.032 18 9 18ZM8.09998 4.50016L9.89998 4.50016L9.89998 6.30016L8.09998 6.30016L8.09998 4.50016ZM8.09998 8.1L9.89998 8.1L9.89998 13.5L8.09998 13.5L8.09998 8.1Z" fill="#0052B0"/>
</svg>
