<svg width="24" height="21" viewBox="0 0 24 21" fill="none" xmlns="http://www.w3.org/2000/svg">
<path fill-rule="evenodd" clip-rule="evenodd" d="M14.581 5.55615C14.581 8.64053 12.057 11.1123 8.9075 11.1123C5.75909 11.1123 3.23397 8.64053 3.23397 5.55615C3.23397 2.47176 5.75909 0 8.9075 0C12.057 0 14.581 2.47176 14.581 5.55615ZM0.333252 17.4036C0.333252 14.5484 4.28303 13.834 8.90747 13.834C13.557 13.834 17.4817 14.573 17.4817 17.4304C17.4817 20.2856 13.5319 21 8.90747 21C4.25792 21 0.333252 20.261 0.333252 17.4036ZM16.869 5.65687C16.869 7.22757 16.3873 8.69319 15.5425 9.91062C15.4546 10.0358 15.5323 10.2046 15.6852 10.2315C15.8976 10.2661 16.1156 10.2874 16.3382 10.2918C18.5528 10.3489 20.5403 8.95255 21.0894 6.84971C21.9033 3.72955 19.5152 0.927996 16.4729 0.927996C16.143 0.927996 15.8268 0.961534 15.5186 1.02302C15.4763 1.03196 15.4307 1.05209 15.4078 1.08786C15.3782 1.1337 15.3999 1.19295 15.4295 1.23208C16.3439 2.48752 16.869 4.01574 16.869 5.65687ZM20.5368 12.486C22.0254 12.7711 23.0037 13.3513 23.409 14.1976C23.7526 14.8907 23.7526 15.6956 23.409 16.3887C22.7891 17.699 20.7891 18.1204 20.0117 18.2289C19.8508 18.2512 19.7218 18.1171 19.7389 17.9583C20.1361 14.3273 16.9775 12.6056 16.1601 12.2099C16.1259 12.1909 16.1179 12.1641 16.1213 12.1462C16.1236 12.135 16.1384 12.1171 16.1647 12.1137C17.9329 12.0802 19.8348 12.3183 20.5368 12.486Z" />
</svg>
