<svg width="18" height="19" viewBox="0 0 18 19" fill="none" xmlns="http://www.w3.org/2000/svg">
<path fill-rule="evenodd" clip-rule="evenodd" d="M13.1858 4.23474H13.3799C15.9302 4.23474 18 6.36631 18 8.98105V14.2105C18 16.8253 15.9302 18.9474 13.3799 18.9474H4.62012C2.06982 18.9474 0 16.8253 0 14.2105V8.98105C0 6.36631 2.06982 4.23474 4.62012 4.23474H4.81417C4.83265 3.09789 5.26694 2.03684 6.05236 1.24105C6.84702 0.435789 7.86345 0.028421 9.00924 0C11.3008 0 13.1581 1.89474 13.1858 4.23474ZM7.02254 2.25475C6.50509 2.78528 6.21864 3.48633 6.20016 4.23475H11.7998C11.772 2.68107 10.5338 1.42107 9.0092 1.42107C8.2977 1.42107 7.55848 1.71475 7.02254 2.25475ZM12.5112 7.88206C12.8993 7.88206 13.2042 7.55995 13.2042 7.17153V6.07258C13.2042 5.68416 12.8993 5.36206 12.5112 5.36206C12.1324 5.36206 11.8182 5.68416 11.8182 6.07258V7.17153C11.8182 7.55995 12.1324 7.88206 12.5112 7.88206ZM6.09851 7.17154C6.09851 7.55996 5.79358 7.88207 5.40549 7.88207C5.02664 7.88207 4.71247 7.55996 4.71247 7.17154V6.0726C4.71247 5.68418 5.02664 5.36207 5.40549 5.36207C5.79358 5.36207 6.09851 5.68418 6.09851 6.0726V7.17154Z" fill="#9231FC"/>
</svg>
