<svg xmlns="http://www.w3.org/2000/svg" width="81" height="81" viewBox="0 0 81 81">
  <g id="Group_5310" data-name="Group 5310" transform="translate(-76 -772)">
    <path id="task_alt_FILL1_wght400_GRAD0_opsz48" d="M35.058,66.115a30.243,30.243,0,0,1-12.112-2.446,31.009,31.009,0,0,1-16.5-16.5A30.242,30.242,0,0,1,4,35.058,30.243,30.243,0,0,1,6.446,22.945a31.009,31.009,0,0,1,16.5-16.5A30.243,30.243,0,0,1,35.058,4a30.385,30.385,0,0,1,9.278,1.4A32.125,32.125,0,0,1,52.45,9.28l-4.736,4.736a26.7,26.7,0,0,0-5.979-2.562,23.651,23.651,0,0,0-6.677-.932A23.643,23.643,0,0,0,17.7,17.7a23.643,23.643,0,0,0-7.182,17.353A23.643,23.643,0,0,0,17.7,52.411a23.643,23.643,0,0,0,17.353,7.182,23.643,23.643,0,0,0,17.353-7.182,23.643,23.643,0,0,0,7.182-17.353q0-1.32-.116-2.523a23.717,23.717,0,0,0-.349-2.368l5.28-5.28a29.371,29.371,0,0,1,1.281,4.93,31.37,31.37,0,0,1,.427,5.241A30.242,30.242,0,0,1,63.669,47.17a31.009,31.009,0,0,1-16.5,16.5A30.242,30.242,0,0,1,35.058,66.115Zm-4.27-16.849L17.51,35.912l4.581-4.581L30.865,40.1,61.534,9.435l4.581,4.5Z" transform="translate(81.68 777.68)" fill="#055cf5"/>
    <rect id="Rectangle_3240" data-name="Rectangle 3240" width="81" height="81" transform="translate(76 772)" fill="none"/>
  </g>
</svg>
