<svg xmlns="http://www.w3.org/2000/svg" width="86.703" height="86.703" viewBox="0 0 86.703 86.703">
  <path id="expand_circle_down_FILL1_wght400_GRAD0_opsz48" d="M47.351,61.332,66.1,42.583l-4.66-4.552L47.351,52.12,33.262,38.031,28.6,42.583Zm0,29.371a41.947,41.947,0,0,1-16.8-3.414A43.677,43.677,0,0,1,7.414,64.15,41.946,41.946,0,0,1,4,47.351,42.213,42.213,0,0,1,7.414,30.444,43.325,43.325,0,0,1,16.734,16.68,44.439,44.439,0,0,1,30.553,7.414,41.946,41.946,0,0,1,47.351,4,42.214,42.214,0,0,1,64.258,7.414a43.284,43.284,0,0,1,23.03,23.03A42.214,42.214,0,0,1,90.7,47.351a41.947,41.947,0,0,1-3.414,16.8,44.44,44.44,0,0,1-9.266,13.818,43.325,43.325,0,0,1-13.764,9.321A42.214,42.214,0,0,1,47.351,90.7Z" transform="translate(-4 90.703) rotate(-90)" fill="#8bd41f"/>
</svg>
