<svg width="16" height="18" viewBox="0 0 16 18" fill="none" xmlns="http://www.w3.org/2000/svg">
<path d="M15.9525 3.62348C15.9525 2.9351 15.4789 2.31644 14.7779 2.0958L8.53524 0.0933283C8.15633 -0.0311094 7.74899 -0.0311094 7.37955 0.0933283L1.15584 2.17523C0.464313 2.40557 -0.00933336 3.02247 0.000139559 3.71085L0.0380312 9.6865C0.0475042 11.4957 0.767446 13.252 2.05576 14.6111C2.64308 15.2377 3.39145 15.7672 4.34821 16.2438L7.73952 17.9206C7.84372 17.9735 7.96687 18 8.08054 18C8.19422 18 8.30789 17.9735 8.41209 17.9206L11.775 16.1996C12.7223 15.7142 13.4706 15.1759 14.0485 14.5405C15.3179 13.1628 16.0094 11.4066 15.9999 9.59737L15.9525 3.62348Z" />
</svg>
