<svg width="15" height="18" viewBox="0 0 15 18" fill="none" xmlns="http://www.w3.org/2000/svg">
<rect width="15" height="18" fill="#C1C3C8"/>
<g clip-path="url(#clip0)">
<rect width="360" height="1203" transform="translate(-172 -1106)" fill="#EAEDF2"/>
<rect x="-172" y="-14" width="360" height="63" fill="white"/>
<rect x="-172" y="-14" width="360" height="63" fill="white" fill-opacity="0.12"/>
<path d="M14.9555 3.95951C14.9555 3.31415 14.5115 2.73416 13.8543 2.52732L8.00179 0.649995C7.64655 0.533335 7.26468 0.533335 6.91832 0.649995L1.0836 2.60178C0.435293 2.81773 -0.00875003 3.39606 0.000130836 4.04142L0.0356543 9.6436C0.0445352 11.3397 0.719481 12.9862 1.92728 14.2604C2.47789 14.8478 3.17948 15.3442 4.07645 15.791L7.2558 17.363C7.35349 17.4127 7.46894 17.4375 7.57551 17.4375C7.68208 17.4375 7.78865 17.4127 7.88634 17.363L11.039 15.7496C11.9271 15.2946 12.6287 14.7899 13.1705 14.1942C14.3605 12.9026 15.0088 11.2562 14.9999 9.56003L14.9555 3.95951Z" fill="black"/>
</g>
<defs>
<clipPath id="clip0">
<rect width="360" height="1203" fill="white" transform="translate(-172 -1106)"/>
</clipPath>
</defs>
</svg>
