<svg width="17" height="18" viewBox="0 0 17 18" fill="none" xmlns="http://www.w3.org/2000/svg">
<path d="M16.46 7.30997C16.3843 7.71369 16.1896 8.08555 15.901 8.37778C15.6123 8.67001 15.2428 8.86929 14.84 8.94998C14.2584 9.02018 13.6712 8.87427 13.19 8.53998C12.29 8.01998 11.6401 8.75996 11.3601 9.32996C11.0204 10.2905 10.7595 11.2771 10.58 12.28C10.39 12.94 10.11 13.45 10.07 13.8C9.86003 15.44 10.7301 16.35 10.8901 17.44C10.8941 17.4792 10.8843 17.5187 10.8624 17.5515C10.8405 17.5844 10.8079 17.6086 10.7701 17.62C10.3447 17.7804 9.8754 17.7804 9.45003 17.62C9.39759 17.5982 9.35219 17.5624 9.31869 17.5166C9.28518 17.4707 9.26491 17.4166 9.26009 17.36C9.20009 16.8 9.20008 16.19 8.87008 15.92C8.83282 15.892 8.80253 15.8558 8.7817 15.8142C8.76087 15.7725 8.75008 15.7265 8.75008 15.68C8.6473 13.9645 7.9385 12.3414 6.75008 11.1C6.7249 11.0718 6.69408 11.0493 6.65963 11.0338C6.62518 11.0183 6.58779 11.0102 6.55001 11.01C6.31001 11.01 6.06008 11.01 5.75008 10.92C5.44008 10.83 5.45005 10.92 5.47005 11.16C5.55005 12.41 6.47011 13.83 6.78011 15C6.79444 15.0505 6.79016 15.1045 6.76815 15.1522C6.74614 15.1998 6.70786 15.2381 6.66012 15.26C6.4881 15.3346 6.30256 15.373 6.11507 15.373C5.92758 15.373 5.74204 15.3346 5.57003 15.26C5.49204 15.2264 5.42575 15.1705 5.37948 15.0993C5.33321 15.0282 5.30903 14.9449 5.31002 14.86C5.1229 13.4851 4.54312 12.1935 3.6401 11.14C3.26271 10.7108 2.82068 10.343 2.33004 10.05C2.29499 10.0205 2.2525 10.0012 2.20724 9.99424C2.16197 9.98725 2.11575 9.99284 2.07345 10.0104C2.03114 10.0279 1.99441 10.0567 1.96737 10.0937C1.94033 10.1307 1.92391 10.1743 1.92 10.22C1.73528 11.5339 1.82381 12.8718 2.18001 14.15C2.18001 14.29 2.10002 14.37 1.94002 14.42C1.63941 14.5061 1.32072 14.5061 1.0201 14.42C0.958962 14.4051 0.903488 14.3724 0.860799 14.3262C0.818111 14.2799 0.790114 14.2221 0.780111 14.16C0.720202 13.6551 0.720202 13.1449 0.780111 12.64C0.730049 12.0203 0.570846 11.4143 0.310018 10.85C0.12703 9.90285 0.0134287 8.94365 -0.0299476 7.97998C-0.179948 5.55998 0.480028 3.18998 3.32003 3.22998C6.74003 3.27998 7.98007 4.39997 10.9901 3.46997C10.6556 3.31318 10.3742 3.06231 10.1801 2.74805C9.98605 2.43379 9.88775 2.06977 9.8973 1.70053C9.90685 1.3313 10.0238 0.972874 10.2338 0.669071C10.4439 0.365267 10.738 0.129263 11.08 -0.0100371C11.0969 -0.0225748 11.1175 -0.0288121 11.1385 -0.0277068C11.1595 -0.0266014 11.1795 -0.0182029 11.1949 -0.00396411C11.2103 0.0102747 11.2202 0.0294575 11.223 0.0502656C11.2258 0.0710737 11.2212 0.0922037 11.21 0.109989C10.74 0.999989 10.8 1.56996 11.31 2.04996C12.2738 2.60775 13.4052 2.80283 14.5001 2.59998C14.6418 2.58094 14.7778 2.5317 14.8989 2.45563C15.02 2.37956 15.1233 2.27839 15.202 2.15897C15.2807 2.03955 15.3328 1.90466 15.3549 1.76337C15.377 1.62208 15.3685 1.4777 15.33 1.33997C15.3321 1.32124 15.3393 1.30347 15.351 1.2887C15.3627 1.27393 15.3784 1.26277 15.3962 1.2565C15.414 1.25023 15.4331 1.24912 15.4515 1.25327C15.4699 1.25742 15.4867 1.26667 15.5001 1.27997C15.7043 1.48295 15.837 1.74671 15.8785 2.03162C15.92 2.31653 15.8679 2.60722 15.7301 2.85999C15.6211 3.08605 15.4631 3.28501 15.2677 3.44242C15.0722 3.59982 14.8442 3.7117 14.6001 3.76996C14.5932 4.35454 14.7367 4.93106 15.0169 5.44416C15.2971 5.95725 15.7045 6.38972 16.2 6.69999C16.3005 6.7629 16.3794 6.85508 16.4259 6.96415C16.4724 7.07321 16.4842 7.19391 16.46 7.30997Z" fill="#8BD41F"/>
</svg>
