<svg xmlns="http://www.w3.org/2000/svg" width="157" height="157" viewBox="0 0 157 157">
  <g id="Group_5230" data-name="Group 5230" transform="translate(-0.5)" opacity="0.4">
    <circle id="Ellipse_163" data-name="Ellipse 163" cx="78.5" cy="78.5" r="78.5" transform="translate(0.5)" fill="#8484e9"/>
    <g id="Group_5226" data-name="Group 5226" transform="translate(35.764 35.919)">
      <path id="Path_5600" data-name="Path 5600" d="M8.445,0A8.445,8.445,0,0,1,16.89,8.445V53.486a8.445,8.445,0,0,1-16.89,0V8.445A8.445,8.445,0,0,1,8.445,0Z" transform="translate(0 22.52)" fill="#fff"/>
      <path id="Path_5601" data-name="Path 5601" d="M8.445,0A8.445,8.445,0,0,1,16.89,8.445V76.006a8.445,8.445,0,1,1-16.89,0V8.445A8.445,8.445,0,0,1,8.445,0Z" transform="translate(33.78)" fill="#fff"/>
      <path id="Path_5602" data-name="Path 5602" d="M8.445,0A8.445,8.445,0,0,1,16.89,8.445v22.52a8.445,8.445,0,0,1-16.89,0V8.445A8.445,8.445,0,0,1,8.445,0Z" transform="translate(67.561 45.041)" fill="#fff"/>
    </g>
  </g>
</svg>
