<svg width="100" height="100" viewBox="0 0 100 100" fill="none" xmlns="http://www.w3.org/2000/svg">
<path d="M50 100C77.6142 100 100 77.6142 100 50C100 22.3858 77.6142 0 50 0C22.3858 0 0 22.3858 0 50C0 77.6142 22.3858 100 50 100Z" fill="#F2F3F5"/>
<path d="M81.458 73.9423C82.251 72.9107 82.6225 71.6163 82.4972 70.3211C82.3718 69.026 81.7591 67.8269 80.783 66.9665C72.2601 59.4028 61.2601 55.2256 49.8648 55.2256C38.4696 55.2256 27.4697 59.4028 18.9468 66.9665C17.9707 67.8269 17.3579 69.026 17.2326 70.3211C17.1073 71.6163 17.4787 72.9107 18.2717 73.9423C21.9937 78.7536 26.7681 82.6485 32.229 85.3282C37.6899 88.0079 43.692 89.4011 49.7749 89.4011C55.8578 89.4011 61.8599 88.0079 67.3207 85.3282C72.7816 82.6485 77.5561 78.7536 81.278 73.9423H81.458Z" fill="#B7BAC2"/>
<path d="M50.2254 48.1099C58.527 48.1099 65.2569 41.38 65.2569 33.0784C65.2569 24.7767 58.527 18.0469 50.2254 18.0469C41.9237 18.0469 35.1938 24.7767 35.1938 33.0784C35.1938 41.38 41.9237 48.1099 50.2254 48.1099Z" fill="#B7BAC2"/>
</svg>
