<svg width="16" height="18" viewBox="0 0 16 18" fill="none" xmlns="http://www.w3.org/2000/svg">
<rect width="16" height="18" fill="#C1C3C8"/>
<g clip-path="url(#clip0)">
<rect width="360" height="1203" transform="translate(-105 -1105)" fill="#EAEDF2"/>
<rect x="-105" y="-13" width="360" height="63" fill="white"/>
<rect x="-105" y="-13" width="360" height="63" fill="white" fill-opacity="0.12"/>
<path fill-rule="evenodd" clip-rule="evenodd" d="M4.27556 0H11.7253C14.4711 0 16 1.602 16 4.347V13.644C16 16.434 14.4711 18 11.7253 18H4.27556C1.57333 18 0 16.434 0 13.644V4.347C0 1.602 1.57333 0 4.27556 0ZM4.51554 4.19395V4.18495H7.17243C7.55554 4.18495 7.86665 4.49995 7.86665 4.88605C7.86665 5.28295 7.55554 5.59795 7.17243 5.59795H4.51554C4.13243 5.59795 3.82221 5.28295 3.82221 4.89595C3.82221 4.50895 4.13243 4.19395 4.51554 4.19395ZM4.51554 9.66598H11.4844C11.8667 9.66598 12.1778 9.35098 12.1778 8.96398C12.1778 8.57698 11.8667 8.26108 11.4844 8.26108H4.51554C4.13243 8.26108 3.82221 8.57698 3.82221 8.96398C3.82221 9.35098 4.13243 9.66598 4.51554 9.66598ZM4.51552 13.779H11.4844C11.8391 13.743 12.1066 13.4361 12.1066 13.077C12.1066 12.708 11.8391 12.402 11.4844 12.366H4.51552C4.24885 12.339 3.99108 12.465 3.84885 12.699C3.70663 12.924 3.70663 13.221 3.84885 13.455C3.99108 13.68 4.24885 13.815 4.51552 13.779Z" fill="#A1A4B0"/>
</g>
<defs>
<clipPath id="clip0">
<rect width="360" height="1203" fill="white" transform="translate(-105 -1105)"/>
</clipPath>
</defs>
</svg>
