<svg width="20" height="20" viewBox="0 0 20 20" fill="none" xmlns="http://www.w3.org/2000/svg">
<rect width="20" height="20" fill="#DBDBDB"/>
<rect width="360" height="2154" transform="translate(-102 -1560)" fill="#F2F3F5"/>
<rect x="-85.5" y="-82.5" width="327" height="119" rx="11.5" fill="white" stroke="#E3E3E3"/>
<path fill-rule="evenodd" clip-rule="evenodd" d="M1.6665 13.4001V6.59175C1.6665 3.65008 3.559 1.66675 6.38317 1.66675H13.6082C16.4332 1.66675 18.3332 3.65008 18.3332 6.59175V13.4001C18.3332 16.3501 16.4332 18.3334 13.6082 18.3334H6.38317C3.559 18.3334 1.6665 16.3501 1.6665 13.4001ZM10.6248 11.8917V6.60008C10.6248 6.25008 10.3415 5.97508 9.99984 5.97508C9.64984 5.97508 9.37484 6.25008 9.37484 6.60008V11.8917L7.3165 9.82508C7.19984 9.70841 7.03317 9.64175 6.87484 9.64175C6.71734 9.64175 6.55817 9.70841 6.43317 9.82508C6.1915 10.0667 6.1915 10.4667 6.43317 10.7084L9.55817 13.8501C9.7915 14.0834 10.2082 14.0834 10.4415 13.8501L13.5665 10.7084C13.8082 10.4667 13.8082 10.0667 13.5665 9.82508C13.3165 9.58341 12.9248 9.58341 12.6748 9.82508L10.6248 11.8917Z" fill="#0097F7"/>
</svg>
