<svg width="17" height="24" viewBox="0 0 17 24" fill="none" xmlns="http://www.w3.org/2000/svg">
<path fill-rule="evenodd" clip-rule="evenodd" d="M13.157 16.8325V22.4072C13.157 23.2605 13.8965 24 14.7498 24H14.8067C15.66 24 16.3995 23.2605 16.3995 22.4072V1.35993C16.3995 0.392893 15.4893 -0.40349 14.6929 0.222239C13.8965 0.791084 12.2469 2.9527 10.8817 7.67411C9.51644 12.3386 10.3697 14.4434 11.5643 15.6379C12.1331 16.2637 13.157 16.8325 13.157 16.8325Z" />
<path fill-rule="evenodd" clip-rule="evenodd" d="M7.52561 0.620451C7.46873 0.336028 7.1843 0.165375 6.89988 0.165375H6.61546L6.4448 5.91071C6.4448 6.19513 6.21727 6.42267 5.93284 6.42267C5.64842 6.42267 5.42088 6.19513 5.42088 5.91071L5.25023 0.165375H4.90892L4.73827 5.91071C4.73827 6.19513 4.51073 6.42267 4.22631 6.42267C3.94189 6.42267 3.71435 6.19513 3.71435 5.91071L3.48681 0.165375H3.1455L2.97485 5.91071C2.97485 6.19513 2.74731 6.42267 2.46289 6.42267C2.17847 6.42267 1.95093 6.19513 1.95093 5.91071L1.78027 0.165375H1.49585C1.21143 0.165375 0.927007 0.336028 0.870122 0.620451C0.528815 1.98568 -0.324453 5.79694 0.130623 8.01544C0.699468 10.7459 2.57666 11.5992 2.57666 11.5992V22.3503C2.57666 23.2605 3.31616 24 4.22631 24C5.13646 24 5.87596 23.2605 5.87596 22.3503V11.656C5.87596 11.656 7.75315 10.8028 8.32199 8.07232C8.72019 5.79694 7.86692 1.98568 7.52561 0.620451Z" />
</svg>
