<svg width="20" height="20" viewBox="0 0 20 20" fill="none" xmlns="http://www.w3.org/2000/svg">
<path d="M10 0C8.02219 0 6.08879 0.58649 4.4443 1.6853C2.79981 2.78412 1.51809 4.3459 0.761209 6.17316C0.00433284 8.00042 -0.1937 10.0111 0.192152 11.9509C0.578004 13.8907 1.53041 15.6725 2.92894 17.0711C4.32746 18.4696 6.10929 19.422 8.0491 19.8078C9.98891 20.1937 11.9996 19.9957 13.8268 19.2388C15.6541 18.4819 17.2159 17.2002 18.3147 15.5557C19.4135 13.9112 20 11.9778 20 10C19.9969 7.34877 18.9424 4.80702 17.0677 2.93232C15.193 1.05762 12.6512 0.00306424 10 0ZM13.4615 6.92308C13.6897 6.92308 13.9128 6.99075 14.1026 7.11753C14.2923 7.24432 14.4402 7.42453 14.5276 7.63536C14.6149 7.8462 14.6377 8.0782 14.5932 8.30203C14.5487 8.52585 14.4388 8.73145 14.2774 8.89281C14.1161 9.05418 13.9105 9.16407 13.6866 9.2086C13.4628 9.25312 13.2308 9.23027 13.02 9.14294C12.8091 9.0556 12.6289 8.90771 12.5022 8.71796C12.3754 8.52821 12.3077 8.30513 12.3077 8.07692C12.3077 7.77091 12.4293 7.47743 12.6457 7.26105C12.862 7.04466 13.1555 6.92309 13.4615 6.92308ZM6.53846 6.92308C6.76667 6.92308 6.98976 6.99075 7.17951 7.11753C7.36926 7.24432 7.51715 7.42453 7.60448 7.63536C7.69181 7.8462 7.71466 8.0782 7.67014 8.30203C7.62562 8.52585 7.51573 8.73145 7.35436 8.89281C7.19299 9.05418 6.98739 9.16407 6.76357 9.2086C6.53974 9.25312 6.30774 9.23027 6.09691 9.14294C5.88607 9.0556 5.70586 8.90771 5.57908 8.71796C5.45229 8.52821 5.38462 8.30513 5.38462 8.07692C5.38463 7.77091 5.5062 7.47743 5.72259 7.26105C5.93897 7.04466 6.23245 6.92309 6.53846 6.92308ZM14.6635 12.6931C14.0766 13.7072 13.176 14.5031 12.0974 14.9609C10.8875 15.4707 9.53325 15.5216 8.28855 15.1041C7.04385 14.6866 5.99423 13.8293 5.33654 12.6931C5.28593 12.6057 5.25304 12.5091 5.23973 12.409C5.22642 12.3089 5.23297 12.2071 5.25899 12.1096C5.285 12.012 5.32999 11.9205 5.39137 11.8403C5.45276 11.7601 5.52934 11.6927 5.61674 11.6421C5.70414 11.5915 5.80066 11.5586 5.90077 11.5453C6.00089 11.532 6.10265 11.5386 6.20024 11.5646C6.29782 11.5906 6.38933 11.6356 6.46954 11.697C6.54974 11.7583 6.61706 11.8349 6.66767 11.9223C7.08803 12.6474 7.73225 13.2165 8.50361 13.5442C8.97795 13.742 9.4868 13.8439 10.0008 13.8439C10.5147 13.8439 11.0236 13.742 11.4979 13.5442C11.9544 13.3505 12.3692 13.0704 12.7194 12.7193C12.957 12.481 13.163 12.2132 13.3323 11.9223C13.3829 11.8349 13.4503 11.7583 13.5305 11.697C13.6107 11.6356 13.7022 11.5906 13.7998 11.5646C13.8974 11.5386 13.9991 11.532 14.0992 11.5453C14.1993 11.5586 14.2959 11.5915 14.3833 11.6421C14.4707 11.6927 14.5472 11.7601 14.6086 11.8403C14.67 11.9205 14.715 12.012 14.741 12.1096C14.767 12.2071 14.7736 12.3089 14.7603 12.409C14.747 12.5091 14.7141 12.6057 14.6635 12.6931Z" />
</svg>
