<svg width="17" height="20" viewBox="0 0 17 20" fill="none" xmlns="http://www.w3.org/2000/svg">
<path fill-rule="evenodd" clip-rule="evenodd" d="M15.7013 2.32867C16.4461 2.57382 16.9493 3.26122 16.9493 4.02608L16.9997 10.6637C17.0097 12.674 16.275 14.6253 14.9263 16.1561C14.3123 16.8621 13.5172 17.4603 12.5107 17.9996L8.93772 19.9117C8.82701 19.9706 8.70623 20 8.58545 20C8.46467 20 8.33383 19.9706 8.22312 19.9117L4.61991 18.0486C3.60336 17.5191 2.80824 16.9307 2.18422 16.2345C0.8154 14.7244 0.0504725 12.773 0.0404076 10.7628L0.000148279 4.12316C-0.00991656 3.3583 0.493325 2.67286 1.22806 2.41693L7.84065 0.103698C8.23318 -0.034566 8.66597 -0.034566 9.06856 0.103698L15.7013 2.32867ZM10.9205 12.0866C11.2124 11.8022 11.2124 11.3315 10.9205 11.0472L9.56174 9.72237L10.9205 8.39954C11.2124 8.11517 11.2124 7.65429 10.9205 7.35913C10.6286 7.07476 10.1455 7.07476 9.85362 7.35913L8.49487 8.68392L7.13612 7.35913C6.84424 7.07476 6.37119 7.07476 6.06924 7.35913C5.77736 7.65429 5.77736 8.11517 6.06924 8.39954L7.428 9.72237L6.06924 11.0472C5.77736 11.3315 5.77736 11.8022 6.06924 12.0866C6.22022 12.2337 6.41145 12.3013 6.60268 12.3013C6.80398 12.3013 6.99521 12.2337 7.13612 12.0866L8.49487 10.7628L9.85362 12.0866C10.0046 12.2337 10.1958 12.3013 10.3871 12.3013C10.5783 12.3013 10.7796 12.2337 10.9205 12.0866Z" fill="#FF002C"/>
</svg>
