<svg width="19" height="19" viewBox="0 0 19 19" fill="none" xmlns="http://www.w3.org/2000/svg">
<path d="M18.0312 7.53125V11.4688C18.0309 11.8167 17.8924 12.1503 17.6464 12.3964C17.4003 12.6424 17.0667 12.7809 16.7188 12.7812H12.7812V16.7188C12.7809 17.0667 12.6424 17.4003 12.3964 17.6464C12.1503 17.8924 11.8167 18.0309 11.4688 18.0312H7.53125C7.18328 18.0309 6.84967 17.8924 6.60361 17.6464C6.35756 17.4003 6.21915 17.0667 6.21875 16.7188V12.7812H2.28125C1.93328 12.7809 1.59967 12.6424 1.35361 12.3964C1.10756 12.1503 0.969148 11.8167 0.96875 11.4688V7.53125C0.969148 7.18328 1.10756 6.84967 1.35361 6.60361C1.59967 6.35756 1.93328 6.21915 2.28125 6.21875H6.21875V2.28125C6.21915 1.93328 6.35756 1.59967 6.60361 1.35361C6.84967 1.10756 7.18328 0.969148 7.53125 0.96875H11.4688C11.8167 0.969148 12.1503 1.10756 12.3964 1.35361C12.6424 1.59967 12.7809 1.93328 12.7812 2.28125V6.21875H16.7188C17.0667 6.21915 17.4003 6.35756 17.6464 6.60361C17.8924 6.84967 18.0309 7.18328 18.0312 7.53125Z" fill="#0097F7"/>
</svg>
