<svg xmlns="http://www.w3.org/2000/svg" width="41.928" height="41.928" viewBox="0 0 41.928 41.928">
  <path id="help_center_FILL1_wght700_GRAD0_opsz48" d="M25.36,38.416a2.4,2.4,0,0,0,1.74-.761,2.455,2.455,0,0,0,.761-1.795,2.308,2.308,0,0,0-.761-1.713,2.5,2.5,0,0,0-1.795-.734,2.348,2.348,0,0,0-1.713.734,2.409,2.409,0,0,0-.734,1.767,2.438,2.438,0,0,0,.734,1.74,2.367,2.367,0,0,0,1.767.761Zm-2.23-8.048h3.915a6.626,6.626,0,0,1,.489-2.583A8.021,8.021,0,0,1,29.548,25.2a12.344,12.344,0,0,0,2.094-2.828,6.741,6.741,0,0,0,.734-3.154,5.973,5.973,0,0,0-1.958-4.786,7.314,7.314,0,0,0-4.949-1.686,7.909,7.909,0,0,0-5.057,1.631A9.764,9.764,0,0,0,17.366,18.4l3.752,1.523a9.344,9.344,0,0,1,1.74-2.2,3.634,3.634,0,0,1,2.556-.9,2.943,2.943,0,0,1,2.175.761,2.582,2.582,0,0,1,.761,1.9,3.332,3.332,0,0,1-.6,1.876,11.669,11.669,0,0,1-1.468,1.767,11.037,11.037,0,0,0-2.665,3.426,11.38,11.38,0,0,0-.489,3.807ZM9.862,46.628a4.926,4.926,0,0,1-3.616-1.5,4.926,4.926,0,0,1-1.5-3.616V9.866a5.017,5.017,0,0,1,1.5-3.644A4.883,4.883,0,0,1,9.862,4.7h31.65a4.971,4.971,0,0,1,3.644,1.523,4.971,4.971,0,0,1,1.523,3.644v31.65a4.883,4.883,0,0,1-1.523,3.616,5.017,5.017,0,0,1-3.644,1.5Z" transform="translate(-4.75 -4.7)" fill="#8bd41f"/>
</svg>
