<svg width="19" height="20" viewBox="0 0 19 20" fill="none" xmlns="http://www.w3.org/2000/svg">
<rect width="19" height="20" fill="#C1C3C8"/>
<g clip-path="url(#clip0)">
<rect width="360" height="640" transform="translate(-36 -544)" fill="#F2F3F5"/>
<rect x="-19.5" y="-109.5" width="327" height="119" rx="11.5" fill="white" stroke="#E3E3E3"/>
<path d="M8.056 6.116L5.68 -0.508001H4.12L7.288 8H8.752L11.968 -0.508001H10.444L8.056 6.116ZM14.3659 8V2.156H12.9859V8H14.3659ZM12.7699 0.103999C12.7699 0.607999 13.1779 1.004 13.6699 1.004C14.1739 1.004 14.5819 0.607999 14.5819 0.103999C14.5819 -0.400001 14.1739 -0.808 13.6699 -0.808C13.1779 -0.808 12.7699 -0.400001 12.7699 0.103999ZM17.1337 4.436C17.1817 3.812 17.6857 3.14 18.5617 3.14C19.5217 3.14 19.9777 3.752 20.0017 4.436H17.1337ZM20.1577 5.96C19.9657 6.536 19.5337 6.98 18.6937 6.98C17.8297 6.98 17.1337 6.344 17.0977 5.456H21.3697C21.3817 5.432 21.4057 5.24 21.4057 5.012C21.4057 3.164 20.3497 1.976 18.5497 1.976C17.0737 1.976 15.7057 3.2 15.7057 5.048C15.7057 7.028 17.1097 8.18 18.6937 8.18C20.0977 8.18 21.0217 7.352 21.3337 6.332L20.1577 5.96ZM25.9659 2.156L24.5859 6.2L23.3979 2.156H21.9099L23.8059 8H25.2339L26.6499 3.8L28.1019 8H29.4939L31.3659 2.156H29.9499L28.7859 6.2L27.4059 2.156H25.9659ZM36.7839 8V4.532C36.7839 3.788 37.2519 3.236 37.9959 3.236C38.7879 3.236 39.1239 3.764 39.1239 4.436V8H40.4919V4.532C40.4919 3.812 40.9719 3.236 41.7039 3.236C42.4839 3.236 42.8319 3.752 42.8319 4.436V8H44.1759V4.208C44.1759 2.66 43.1679 1.988 42.1119 1.988C41.3559 1.988 40.6719 2.252 40.2159 3.02C39.9039 2.336 39.2319 1.988 38.4639 1.988C37.8039 1.988 37.0719 2.3 36.7359 2.9V2.156H35.4039V8H36.7839ZM48.4485 6.932C47.5965 6.932 46.8165 6.284 46.8165 5.072C46.8165 3.86 47.5965 3.236 48.4485 3.236C49.3125 3.236 50.0805 3.86 50.0805 5.072C50.0805 6.296 49.3125 6.932 48.4485 6.932ZM48.4485 1.976C46.7085 1.976 45.4245 3.284 45.4245 5.072C45.4245 6.872 46.7085 8.18 48.4485 8.18C50.2005 8.18 51.4845 6.872 51.4845 5.072C51.4845 3.284 50.2005 1.976 48.4485 1.976ZM56.2497 2.12C56.1897 2.108 56.0457 2.084 55.8777 2.084C55.1097 2.084 54.4617 2.456 54.1857 3.092V2.156H52.8297V8H54.2217V5.216C54.2217 4.124 54.7137 3.5 55.7937 3.5C55.9377 3.5 56.0937 3.512 56.2497 3.536V2.12ZM58.3251 4.436C58.3731 3.812 58.8771 3.14 59.7531 3.14C60.7131 3.14 61.1691 3.752 61.1931 4.436H58.3251ZM61.3491 5.96C61.1571 6.536 60.7251 6.98 59.8851 6.98C59.0211 6.98 58.3251 6.344 58.2891 5.456H62.5611C62.5731 5.432 62.5971 5.24 62.5971 5.012C62.5971 3.164 61.5411 1.976 59.7411 1.976C58.2651 1.976 56.8971 3.2 56.8971 5.048C56.8971 7.028 58.3011 8.18 59.8851 8.18C61.2891 8.18 62.2131 7.352 62.5251 6.332L61.3491 5.96Z" fill="#60626B"/>
<g filter="url(#filter0_d)">
<rect x="-36" y="-15" width="360" height="63" fill="white"/>
<rect x="-36" y="-15" width="360" height="63" fill="white" fill-opacity="0.12"/>
</g>
<path d="M6.63478 18.7733V15.7156C6.63478 14.9351 7.27217 14.3023 8.05844 14.3023H10.9326C11.3102 14.3023 11.6723 14.4512 11.9393 14.7163C12.2063 14.9813 12.3563 15.3408 12.3563 15.7156V18.7733C12.3539 19.0978 12.4821 19.4099 12.7124 19.6402C12.9427 19.8705 13.2561 20 13.5829 20H15.5438C16.4596 20.0023 17.3388 19.6428 17.9872 19.0008C18.6356 18.3588 19 17.487 19 16.5778V7.86686C19 7.13246 18.6721 6.43584 18.1046 5.96467L11.434 0.675869C10.2737 -0.251438 8.61111 -0.221498 7.48539 0.746979L0.967012 5.96467C0.372741 6.42195 0.0175523 7.12064 0 7.86686V16.5689C0 18.4639 1.54738 20 3.45617 20H5.37229C6.05123 20 6.603 19.4562 6.60792 18.7822L6.63478 18.7733Z" />
</g>
<defs>
<filter id="filter0_d" x="-44" y="-23" width="376" height="79" filterUnits="userSpaceOnUse" color-interpolation-filters="sRGB">
<feFlood flood-opacity="0" result="BackgroundImageFix"/>
<feColorMatrix in="SourceAlpha" type="matrix" values="0 0 0 0 0 0 0 0 0 0 0 0 0 0 0 0 0 0 127 0" result="hardAlpha"/>
<feOffset/>
<feGaussianBlur stdDeviation="4"/>
<feColorMatrix type="matrix" values="0 0 0 0 0 0 0 0 0 0 0 0 0 0 0 0 0 0 0.14 0"/>
<feBlend mode="normal" in2="BackgroundImageFix" result="effect1_dropShadow"/>
<feBlend mode="normal" in="SourceGraphic" in2="effect1_dropShadow" result="shape"/>
</filter>
<clipPath id="clip0">
<rect width="360" height="640" fill="white" transform="translate(-36 -544)"/>
</clipPath>
</defs>
</svg>
