<svg xmlns="http://www.w3.org/2000/svg" width="66" height="66" viewBox="0 0 66 66">
  <g id="Group_5222" data-name="Group 5222" transform="translate(-11005 -1626)">
    <circle id="Ellipse_161" data-name="Ellipse 161" cx="33" cy="33" r="33" transform="translate(11005 1626)" fill="#fff"/>
    <path id="info_FILL1_wght400_GRAD0_opsz48" d="M34.609,53.236h4.924V33.542H34.609Zm2.216-25.767a2.7,2.7,0,0,0,1.928-.739,2.486,2.486,0,0,0,.78-1.887,2.758,2.758,0,0,0-.78-1.969,2.676,2.676,0,0,0-3.857,0,2.758,2.758,0,0,0-.78,1.969,2.486,2.486,0,0,0,.78,1.887,2.7,2.7,0,0,0,1.928.739Zm0,42.179A31.761,31.761,0,0,1,24.1,67.064a33.071,33.071,0,0,1-17.52-17.52A31.963,31.963,0,0,1,4,36.742,31.76,31.76,0,0,1,6.585,24.023,32.8,32.8,0,0,1,13.642,13.6,33.648,33.648,0,0,1,24.1,6.585,31.963,31.963,0,0,1,36.906,4,31.76,31.76,0,0,1,49.626,6.585,32.773,32.773,0,0,1,67.064,24.023a31.963,31.963,0,0,1,2.585,12.8,31.761,31.761,0,0,1-2.585,12.719,33.648,33.648,0,0,1-7.016,10.463,32.8,32.8,0,0,1-10.422,7.057A31.963,31.963,0,0,1,36.824,69.648Z" transform="translate(11001 1622.176)" fill="#055cf5"/>
  </g>
</svg>
