<svg width="22" height="18" viewBox="0 0 22 18" fill="none" xmlns="http://www.w3.org/2000/svg">
<rect width="22" height="18" fill="#C1C3C8"/>
<rect width="360" height="640" transform="translate(-234 -544)" fill="#EAEDF2"/>
<rect x="-234" y="-15" width="360" height="63" fill="white"/>
<rect x="-234" y="-15" width="360" height="63" fill="white" fill-opacity="0.12"/>
<g clip-path="url(#clip0)">
<path d="M12.9744 8.1901L21.4923 4.99538C22.1692 4.76304 22.1692 3.77558 21.4923 3.54323L12.9744 0.348515C11.6769 -0.116172 10.3231 -0.116172 9.02564 0.348515L0.507692 3.54323C-0.169231 3.77558 -0.169231 4.76304 0.507692 4.99538L9.02564 8.1901C10.3231 8.65479 11.6769 8.65479 12.9744 8.1901Z" />
<path d="M17.7128 15.3347L15.118 16.6126C12.5231 17.8904 9.53336 17.8904 6.93849 16.6126L4.34361 15.3347C3.159 14.7538 2.36926 13.534 2.36926 12.14V8.6548C2.36926 8.2482 2.76413 8.01586 3.10259 8.13203L8.96926 10.3393C10.3231 10.8621 11.7898 10.8621 13.1436 10.3393L18.9539 8.13203C19.2923 8.01586 19.6872 8.2482 19.6872 8.6548V12.14C19.6872 13.534 18.8975 14.7538 17.7128 15.3347Z" />
</g>
<defs>
<clipPath id="clip0">
<rect width="22" height="17.6" fill="white"/>
</clipPath>
</defs>
</svg>
