<svg width="20" height="16" viewBox="0 0 20 16" fill="none" xmlns="http://www.w3.org/2000/svg">
<path d="M11.7949 7.44554L19.5385 4.54125C20.1538 4.33003 20.1538 3.43234 19.5385 3.22112L11.7949 0.316832C10.6154 -0.105611 9.38462 -0.105611 8.20513 0.316832L0.461538 3.22112C-0.153846 3.43234 -0.153846 4.33003 0.461538 4.54125L8.20513 7.44554C9.38462 7.86799 10.6154 7.86799 11.7949 7.44554Z" fill="#F6267D"/>
<path d="M16.1025 13.9406L13.7436 15.1023C11.3846 16.264 8.66663 16.264 6.30765 15.1023L3.94868 13.9406C2.87176 13.4126 2.15381 12.3036 2.15381 11.0363V7.868C2.15381 7.49837 2.51278 7.28715 2.82048 7.39276L8.15381 9.39936C9.38458 9.8746 10.7179 9.8746 11.9487 9.39936L17.2307 7.39276C17.5384 7.28715 17.8974 7.49837 17.8974 7.868V11.0363C17.8974 12.3036 17.1794 13.4126 16.1025 13.9406Z" fill="#F6267D"/>
</svg>
