<svg xmlns="http://www.w3.org/2000/svg" width="32" height="42" viewBox="0 0 32 42">
  <path id="lock_FILL1_wght400_GRAD0_opsz48" d="M11,44a2.988,2.988,0,0,1-3-3V19.3a2.988,2.988,0,0,1,3-3h3.5V11.5a9.159,9.159,0,0,1,2.775-6.725A9.159,9.159,0,0,1,24,2a9.159,9.159,0,0,1,6.725,2.775A9.159,9.159,0,0,1,33.5,11.5v4.8H37a2.988,2.988,0,0,1,3,3V41a2.988,2.988,0,0,1-3,3ZM24,34a3.754,3.754,0,0,0,2.725-1.1,3.572,3.572,0,0,0,1.125-2.65,3.936,3.936,0,0,0-1.125-2.725,3.643,3.643,0,0,0-5.45,0A3.936,3.936,0,0,0,20.15,30.25a3.572,3.572,0,0,0,1.125,2.65A3.754,3.754,0,0,0,24,34ZM17.5,16.3h13V11.5a6.265,6.265,0,0,0-1.9-4.6,6.518,6.518,0,0,0-9.2,0,6.265,6.265,0,0,0-1.9,4.6Z" transform="translate(-8 -2)"/>
</svg>
