<svg xmlns="http://www.w3.org/2000/svg" width="89" height="88" viewBox="0 0 89 88">
  <g id="Group_5183" data-name="Group 5183" transform="translate(-983.152 -1602)">
    <rect id="Rectangle_3220" data-name="Rectangle 3220" width="89" height="88" rx="44" transform="translate(983.152 1602)" fill="#b8b8b8"/>
    <path id="lock_FILL1_wght400_GRAD0_opsz48" d="M11.474,50.632A3.459,3.459,0,0,1,8,47.158V22.032a3.459,3.459,0,0,1,3.474-3.474h4.053V13a10.6,10.6,0,0,1,3.213-7.787A10.6,10.6,0,0,1,26.526,2a10.6,10.6,0,0,1,7.787,3.213A10.6,10.6,0,0,1,37.526,13v5.558h4.053a3.459,3.459,0,0,1,3.474,3.474V47.158a3.459,3.459,0,0,1-3.474,3.474ZM26.526,39.053a4.347,4.347,0,0,0,3.155-1.274,4.136,4.136,0,0,0,1.3-3.068,4.557,4.557,0,0,0-1.3-3.155,4.219,4.219,0,0,0-6.311,0,4.557,4.557,0,0,0-1.3,3.155,4.136,4.136,0,0,0,1.3,3.068A4.347,4.347,0,0,0,26.526,39.053ZM19,18.558H34.053V13a7.255,7.255,0,0,0-2.2-5.326,7.548,7.548,0,0,0-10.653,0A7.255,7.255,0,0,0,19,13Z" transform="translate(1001.626 1619.684)"/>
  </g>
</svg>
