<svg width="14" height="18" viewBox="0 0 14 18" fill="none" xmlns="http://www.w3.org/2000/svg">
<path d="M0.277106 17.1536C-0.212987 16.6635 0.0511633 16.1893 0.277115 15.6833C1.93401 11.9724 3.86057 10.4985 6.61608 7.55671C4.73773 8.88584 2.99854 9.72898 1.42673 11.4311C0.840318 10.4369 0.528556 9.98057 0.525295 8.81616C0.525295 7.14602 1.167 5.54429 2.30924 4.36333C3.45149 3.18236 5.0007 2.5189 6.61608 2.5189H9.05239C10.0099 2.60148 10.9709 2.41017 11.8303 1.9659C12.6897 1.52163 13.4144 0.841527 13.925 0C13.925 0 15.265 15.1134 6.61608 15.1134C5.47794 15.1165 4.36247 14.7845 3.40014 14.1562C3.21773 14.213 2.72763 14.8888 2.23752 15.6833C1.66231 16.6157 1.81767 16.5018 1.42673 16.9795C1.14353 17.3879 0.525298 17.4018 0.277106 17.1536Z" fill="#6FAA19"/>
</svg>
