<svg width="18" height="18" viewBox="0 0 18 18" fill="none" xmlns="http://www.w3.org/2000/svg">
<path fill-rule="evenodd" clip-rule="evenodd" d="M9.29367 0.188696C9.43739 0.05969 9.62751 -0.00793186 9.82211 0.000742409C13.9358 0.123889 17.3739 3.11022 17.997 7.10157C18.0009 7.1254 18.0009 7.1497 17.997 7.17353C18.0104 7.36239 17.9465 7.5487 17.8196 7.69126C17.6926 7.83383 17.513 7.92089 17.3205 7.9332L10.4089 8.38899C10.1804 8.40926 9.95369 8.33404 9.78459 8.18183C9.61548 8.02962 9.51961 7.81451 9.52055 7.58935L9.05597 0.800385V0.688435C9.06443 0.497498 9.14995 0.317703 9.29367 0.188696ZM8.81969 10.1643L14.8102 9.78047L14.851 9.79646C15.1082 9.80066 15.3532 9.90498 15.5321 10.0864C15.7109 10.2679 15.8089 10.5116 15.8046 10.764C15.5685 14.2039 13.0465 17.0781 9.61449 17.8185C6.18244 18.559 2.66416 16.988 0.979003 13.9626C0.483496 13.0912 0.170372 12.1315 0.0580086 11.1399C0.0144282 10.846 -0.00465264 10.5492 0.000955789 10.2523C0.0123142 6.59446 2.61655 3.43726 6.26046 2.66365C6.70158 2.58108 7.14386 2.80133 7.33631 3.19941C7.38422 3.27164 7.42257 3.34957 7.45042 3.4313C7.51873 4.48573 7.58958 5.53018 7.66014 6.57022C7.71586 7.39158 7.77139 8.21019 7.82534 9.0288C7.82255 9.22164 7.85286 9.41357 7.91499 9.59655C8.06125 9.95656 8.42523 10.185 8.81969 10.1643Z" fill="#00C193"/>
</svg>
