<svg width="18" height="18" viewBox="0 0 18 18" fill="none" xmlns="http://www.w3.org/2000/svg">
<rect width="18" height="18" fill="#C1C3C8"/>
<g clip-path="url(#clip0)">
<rect width="360" height="640" transform="translate(-301 -543)" fill="#EAEDF2"/>
<rect x="-301" y="-14" width="360" height="63" fill="white"/>
<rect x="-301" y="-14" width="360" height="63" fill="white" fill-opacity="0.12"/>
<path fill-rule="evenodd" clip-rule="evenodd" d="M2.28603 0H5.32808C6.5971 0 7.61411 1.03502 7.61411 2.30493V5.37308C7.61411 6.6511 6.5971 7.67711 5.32808 7.67711H2.28603C1.02602 7.67711 0 6.6511 0 5.37308V2.30493C0 1.03502 1.02602 0 2.28603 0ZM2.28603 10.3229H5.32808C6.5971 10.3229 7.61411 11.3498 7.61411 12.6278V15.696C7.61411 16.965 6.5971 18 5.32808 18H2.28603C1.02602 18 0 16.965 0 15.696V12.6278C0 11.3498 1.02602 10.3229 2.28603 10.3229ZM15.7143 0H12.6723C11.4033 0 10.3862 1.03502 10.3862 2.30493V5.37308C10.3862 6.6511 11.4033 7.67711 12.6723 7.67711H15.7143C16.9743 7.67711 18.0004 6.6511 18.0004 5.37308V2.30493C18.0004 1.03502 16.9743 0 15.7143 0ZM12.6723 10.3229H15.7143C16.9743 10.3229 18.0004 11.3498 18.0004 12.6278V15.696C18.0004 16.965 16.9743 18 15.7143 18H12.6723C11.4033 18 10.3862 16.965 10.3862 15.696V12.6278C10.3862 11.3498 11.4033 10.3229 12.6723 10.3229Z"/>
</g>
<defs>
<clipPath id="clip0">
<rect width="360" height="640" fill="white" transform="translate(-301 -543)"/>
</clipPath>
</defs>
</svg>
