<svg width="15" height="16" viewBox="0 0 15 16" fill="none" xmlns="http://www.w3.org/2000/svg">
<rect width="15" height="16" fill="#DBDBDB"/>
<rect width="1440" height="900" transform="translate(-748 -445)" fill="#F2F3F5"/>
<rect x="-24.5" y="-20.5" width="327" height="119" rx="11.5" fill="white" stroke="#E3E3E3"/>
<path fill-rule="evenodd" clip-rule="evenodd" d="M12.8656 5.43706C12.8656 6.44181 13.1312 7.03402 13.7156 7.71647C14.1584 8.21925 14.3 8.86464 14.3 9.56482C14.3 10.2642 14.0702 10.9281 13.6098 11.4671C13.0071 12.1133 12.1572 12.5259 11.2897 12.5976C10.0327 12.7047 8.77488 12.795 7.50035 12.795C6.22503 12.795 4.96799 12.741 3.71095 12.5976C2.84272 12.5259 1.99277 12.1133 1.39088 11.4671C0.930527 10.9281 0.699951 10.2642 0.699951 9.56482C0.699951 8.86464 0.842272 8.21925 1.28434 7.71647C1.88702 7.03402 2.13509 6.44181 2.13509 5.43706V5.09624C2.13509 3.75067 2.47061 2.87082 3.16155 2.00949C4.1888 0.753357 5.83543 0 7.46457 0H7.53613C9.20025 0 10.9001 0.789615 11.9099 2.09973C12.5651 2.94333 12.8656 3.78612 12.8656 5.09624V5.43706ZM5.15898 14.4486C5.15898 14.0458 5.5287 13.8613 5.87059 13.7823C6.27052 13.6977 8.70747 13.6977 9.1074 13.7823C9.44929 13.8613 9.819 14.0458 9.819 14.4486C9.79912 14.8322 9.57411 15.1722 9.26323 15.3881C8.86012 15.7024 8.38705 15.9014 7.8925 15.9731C7.61899 16.0085 7.35025 16.0093 7.08628 15.9731C6.59094 15.9014 6.11786 15.7024 5.71555 15.3873C5.40387 15.1722 5.17886 14.8322 5.15898 14.4486Z" fill="#0052B0"/>
</svg>
