<svg width="14" height="16" viewBox="0 0 14 16" fill="none" xmlns="http://www.w3.org/2000/svg">
<path fill-rule="evenodd" clip-rule="evenodd" d="M12.1657 5.43706C12.1657 6.44181 12.4312 7.03402 13.0156 7.71647C13.4585 8.21925 13.6 8.86464 13.6 9.56482C13.6 10.2642 13.3702 10.9281 12.9099 11.4671C12.3072 12.1133 11.4572 12.5259 10.5898 12.5976C9.33276 12.7047 8.07493 12.795 6.8004 12.795C5.52507 12.795 4.26804 12.741 3.011 12.5976C2.14277 12.5259 1.29281 12.1133 0.690932 11.4671C0.230576 10.9281 0 10.2642 0 9.56482C0 8.86464 0.142321 8.21925 0.584391 7.71647C1.18707 7.03402 1.43514 6.44181 1.43514 5.43706V5.09624C1.43514 3.75067 1.77066 2.87082 2.4616 2.00949C3.48885 0.753357 5.13548 0 6.76462 0H6.83618C8.5003 0 10.2002 0.789615 11.21 2.09973C11.8651 2.94333 12.1657 3.78612 12.1657 5.09624V5.43706ZM4.45903 14.4486C4.45903 14.0458 4.82875 13.8613 5.17064 13.7823C5.57057 13.6977 8.00752 13.6977 8.40745 13.7823C8.74933 13.8613 9.11905 14.0458 9.11905 14.4486C9.09917 14.8322 8.87416 15.1722 8.56328 15.3881C8.16017 15.7024 7.6871 15.9014 7.19255 15.9731C6.91904 16.0085 6.6503 16.0093 6.38633 15.9731C5.89099 15.9014 5.41791 15.7024 5.0156 15.3873C4.70392 15.1722 4.47891 14.8322 4.45903 14.4486Z" fill="#FF8900"/>
</svg>
