<svg xmlns="http://www.w3.org/2000/svg" xmlns:xlink="http://www.w3.org/1999/xlink" width="386.787" height="386.787" viewBox="0 0 386.787 386.787">
  <defs>
    <clipPath id="clip-path">
      <rect id="Rectangle_3231" data-name="Rectangle 3231" width="386.787" height="386.787" fill="none"/>
    </clipPath>
  </defs>
  <g id="Group_5202" data-name="Group 5202" transform="translate(0 0)">
    <g id="Group_5201" data-name="Group 5201" transform="translate(0 0)">
      <g id="Group_5200" data-name="Group 5200" clip-path="url(#clip-path)">
        <path id="Path_5524" data-name="Path 5524" d="M386.787,193.391c0,106.809-86.587,193.391-193.391,193.391S0,300.2,0,193.391,86.587,0,193.4,0,386.787,86.582,386.787,193.391" transform="translate(0 0.001)" fill="#8bd41f"/>
        <path id="Path_5525" data-name="Path 5525" d="M65.1,17.958l8.8,17.831,19.686,2.86L79.347,52.538l3.364,19.605L65.1,62.884,47.5,72.144,50.86,52.538,36.614,38.649,56.3,35.789Z" transform="translate(128.292 62.922)"/>
        <path id="Path_5526" data-name="Path 5526" d="M46.772,20.339l7.062,14.3,15.786,2.3L58.2,48.078,60.9,63.8,46.772,56.379,32.652,63.8l2.693-15.723L23.92,36.944l15.791-2.3Z" transform="translate(83.811 71.265)"/>
        <path id="Path_5527" data-name="Path 5527" d="M74.661,20.339l7.062,14.3,15.786,2.3L86.083,48.078l2.7,15.723-14.12-7.422L60.542,63.8l2.7-15.723L51.813,36.944l15.786-2.3Z" transform="translate(181.546 71.265)"/>
        <path id="Path_5528" data-name="Path 5528" d="M65.1,110.432,73.9,92.6l19.686-2.869L79.347,75.852l3.364-19.61L65.1,65.506,47.5,56.242l3.364,19.61L36.614,89.728,56.3,92.6Z" transform="translate(128.292 197.064)"/>
        <path id="Path_5529" data-name="Path 5529" d="M46.772,99.709l7.062-14.3L69.62,83.1,58.2,71.969l2.7-15.727L46.772,63.669l-14.12-7.427,2.693,15.727L23.92,83.1,39.71,85.4Z" transform="translate(83.811 197.065)"/>
        <path id="Path_5530" data-name="Path 5530" d="M74.661,99.709l7.062-14.3,15.786-2.3L86.083,71.969l2.7-15.727-14.12,7.427-14.12-7.427,2.7,15.727L51.813,83.1,67.6,85.4Z" transform="translate(181.546 197.065)"/>
        <path id="Path_5531" data-name="Path 5531" d="M169.1,331.437c-89.415,0-162.161-72.746-162.161-162.161S79.68,7.11,169.1,7.11,331.257,79.856,331.257,169.276,258.51,331.437,169.1,331.437m0-320.643c-87.384,0-158.477,71.093-158.477,158.482S81.712,327.753,169.1,327.753s158.482-71.089,158.482-158.477S256.479,10.794,169.1,10.794" transform="translate(24.296 24.913)" fill="#fff"/>
        <path id="Path_5532" data-name="Path 5532" d="M161.166,313.316C77.372,313.316,9.2,245.136,9.2,161.342S77.372,9.373,161.166,9.373,313.14,77.543,313.14,161.342,244.96,313.316,161.166,313.316m0-296.579c-79.736,0-144.605,64.869-144.605,144.605s64.869,144.61,144.605,144.61,144.605-64.874,144.605-144.61S240.9,16.737,161.166,16.737" transform="translate(32.225 32.843)"/>
        <path id="Path_5533" data-name="Path 5533" d="M49.919,2.084l2.774,5.625,6.2.9-4.486,4.369,1.063,6.184-5.553-2.914L44.37,19.158l1.063-6.184L40.947,8.605l6.2-.9Z" transform="translate(143.474 7.302)"/>
        <path id="Path_5534" data-name="Path 5534" d="M40.313,2.841l3.873,4.927,6.251-.405-3.486,5.211L49.272,18.4,43.241,16.69,38.413,20.7l-.239-6.274-5.3-3.351L38.76,8.916Z" transform="translate(115.198 9.954)"/>
        <path id="Path_5535" data-name="Path 5535" d="M30.95,5.257l4.8,4.035L41.791,7.63l-2.36,5.805,3.454,5.233-6.256-.446-3.914,4.9-1.509-6.08-5.86-2.211,5.319-3.306Z" transform="translate(88.813 18.42)"/>
        <path id="Path_5536" data-name="Path 5536" d="M22.115,9.153l5.5,3L33.2,9.324,32.046,15.49l4.423,4.445-6.211.8-2.864,5.585L24.7,20.647l-6.184-1,4.558-4.3Z" transform="translate(64.895 32.071)"/>
        <path id="Path_5537" data-name="Path 5537" d="M14.164,16.135,20.149,18l4.927-3.873.072,6.26,5.211,3.495-5.941,2.009-1.711,6.026-3.752-5.026-6.256.23,3.626-5.107Z" transform="translate(44.498 49.513)"/>
        <path id="Path_5538" data-name="Path 5538" d="M7.973,24.326l6.233.653,4.076-4.761,1.3,6.121,5.792,2.41-5.427,3.13-.5,6.256-4.661-4.2L8.7,35.392l2.549-5.724Z" transform="translate(27.936 70.844)"/>
        <path id="Path_5539" data-name="Path 5539" d="M4.429,33.354l6.238-.6,3.04-5.481,2.5,5.747,6.161,1.194-4.7,4.157.766,6.22-5.409-3.18L7.348,44.046,8.7,37.934Z" transform="translate(15.519 95.547)"/>
        <path id="Path_5540" data-name="Path 5540" d="M2.411,42.764,8.4,40.9l1.851-5.981,3.621,5.107,6.274-.081L16.4,44.966l2.018,5.941-5.941-2.013L7.451,52.645l.081-6.265Z" transform="translate(8.447 122.348)"/>
        <path id="Path_5541" data-name="Path 5541" d="M2.061,52.431l5.472-3.072L8.1,43.126l4.6,4.247,6.121-1.378-2.621,5.7,3.2,5.387-6.229-.734-4.135,4.7L7.821,54.9Z" transform="translate(7.22 151.107)"/>
        <path id="Path_5542" data-name="Path 5542" d="M3.218,61.5l4.716-4.121-.721-6.229,5.373,3.216,5.706-2.612-1.4,6.116,4.243,4.607-6.247.563L11.82,68.5l-2.459-5.76Z" transform="translate(11.274 179.221)"/>
        <path id="Path_5543" data-name="Path 5543" d="M6.02,71.064l3.792-4.99L7.844,60.119l5.914,2.063,5.058-3.711-.131,6.269L23.775,68.4l-6,1.815-1.91,5.959L12.29,71.037Z" transform="translate(21.095 204.875)"/>
        <path id="Path_5544" data-name="Path 5544" d="M10.587,79.891l2.734-5.648-3.1-5.45,6.206.856,4.225-4.639,1.108,6.17,5.715,2.581-5.531,2.964-.685,6.229-4.522-4.337Z" transform="translate(35.8 227.786)"/>
        <path id="Path_5545" data-name="Path 5545" d="M18.009,87.214l1.572-6.071-4.108-4.729,6.247-.383,3.229-5.373,2.3,5.832,6.107,1.41-4.837,3.99.54,6.242-5.283-3.369Z" transform="translate(54.218 247.576)"/>
        <path id="Path_5546" data-name="Path 5546" d="M26.434,92.694l.347-6.256-4.963-3.833,6.053-1.6L29.988,75.1l3.4,5.261,6.265.189-3.959,4.86,1.766,6.013-5.851-2.265Z" transform="translate(76.445 263.132)"/>
        <path id="Path_5547" data-name="Path 5547" d="M35.627,96.15l-.919-6.2L29.079,87.2,34.686,84.4l.887-6.206,4.387,4.477,6.175-1.081-2.9,5.558,2.928,5.54-6.175-1.045Z" transform="translate(101.888 273.995)"/>
        <path id="Path_5548" data-name="Path 5548" d="M45.081,97.464,42.91,91.582l-6.071-1.54,4.914-3.882-.405-6.265,5.211,3.486,5.823-2.319-1.7,6.04,4,4.81-6.26.248Z" transform="translate(129.078 279.938)"/>
        <path id="Path_5549" data-name="Path 5549" d="M54.681,97.455l-3.346-5.3-6.26-.252,4.008-4.81-1.7-6.04,5.828,2.319,5.215-3.477-.414,6.26,4.918,3.878-6.076,1.54Z" transform="translate(157.935 279.939)"/>
        <path id="Path_5550" data-name="Path 5550" d="M63.548,96.152l-4.364-4.5L53,92.693l2.932-5.531-2.9-5.567,6.17,1.081L63.6,78.2l.883,6.215L70.088,87.2l-5.621,2.756Z" transform="translate(185.722 274)"/>
        <path id="Path_5551" data-name="Path 5551" d="M73.322,92.7l-5.179-3.54L62.3,91.417l1.761-6.008L60.1,80.549l6.269-.189,3.4-5.26L71.885,81l6.049,1.6L72.971,86.44Z" transform="translate(210.577 263.137)"/>
        <path id="Path_5552" data-name="Path 5552" d="M81.79,87.219l-5.774-2.45-5.278,3.364.536-6.238-4.842-3.99,6.112-1.41,2.3-5.837,3.234,5.378,6.251.383-4.108,4.729Z" transform="translate(232.768 247.578)"/>
        <path id="Path_5553" data-name="Path 5553" d="M88.706,79.884l-6.134-1.266-4.526,4.337-.689-6.229L71.83,73.763l5.711-2.581,1.112-6.17,4.225,4.639,6.2-.851-3.1,5.445Z" transform="translate(251.682 227.793)"/>
        <path id="Path_5554" data-name="Path 5554" d="M93.674,71.064,87.4,71.037l-3.572,5.148-1.905-5.968L75.915,68.4,81,64.74l-.126-6.269,5.058,3.716,5.914-2.063-1.964,5.95Z" transform="translate(265.996 204.875)"/>
        <path id="Path_5555" data-name="Path 5555" d="M96.614,61.506l-6.152,1.23L88,68.5l-3.072-5.45-6.247-.567,4.243-4.621-1.392-6.1,5.7,2.608,5.378-3.211-.721,6.224Z" transform="translate(275.681 179.228)"/>
        <path id="Path_5556" data-name="Path 5556" d="M97.312,52.431,91.547,54.9l-1.221,6.152L86.2,56.345l-6.229.739,3.207-5.391L80.548,46l6.116,1.383,4.6-4.256.567,6.242Z" transform="translate(280.194 151.107)"/>
        <path id="Path_5557" data-name="Path 5557" d="M97.262,42.772l-5.121,3.612.081,6.26L87.2,48.9,81.26,50.915l2.018-5.936-3.747-5.026,6.274.086,3.617-5.121,1.856,5.99Z" transform="translate(278.664 122.347)"/>
        <path id="Path_5558" data-name="Path 5558" d="M95.4,33.354l-4.274,4.589,1.356,6.112L86.8,41.406l-5.4,3.18.761-6.211-4.693-4.157,6.157-1.2,2.5-5.747,3.04,5.481Z" transform="translate(271.434 95.547)"/>
        <path id="Path_5559" data-name="Path 5559" d="M91.446,24.326l-3.27,5.351,2.549,5.715-6.094-1.45L79.97,38.135l-.5-6.251-5.432-3.135,5.8-2.4,1.306-6.13,4.067,4.761Z" transform="translate(259.435 70.844)"/>
        <path id="Path_5560" data-name="Path 5560" d="M85.451,16.135l-2.162,5.882,3.626,5.116-6.256-.239-3.747,5.026L75.2,25.895l-5.936-2.009,5.206-3.495.077-6.26L79.465,18Z" transform="translate(242.675 49.513)"/>
        <path id="Path_5561" data-name="Path 5561" d="M77.732,9.155l-.968,6.193,4.558,4.3-6.184.991-2.684,5.675-2.864-5.58-6.215-.806L67.8,15.482,66.639,9.326l5.589,2.833Z" transform="translate(222.051 32.077)"/>
        <path id="Path_5562" data-name="Path 5562" d="M68.573,5.257l.279,6.265,5.328,3.306-5.864,2.211L66.8,23.119l-3.914-4.9-6.251.446,3.45-5.233L57.737,7.63l6.04,1.662Z" transform="translate(198.45 18.42)"/>
        <path id="Path_5563" data-name="Path 5563" d="M59.229,2.841l1.549,6.076,5.882,2.157-5.3,3.351L61.125,20.7,56.3,16.69,50.266,18.4l2.319-5.828L49.1,7.363l6.247.41Z" transform="translate(172.054 9.954)"/>
        <path id="Path_5564" data-name="Path 5564" d="M49.919,2.084l2.774,5.625,6.2.9-4.486,4.369,1.063,6.184-5.553-2.914L44.37,19.158l1.063-6.184L40.947,8.605l6.2-.9Z" transform="translate(143.474 7.302)"/>
      </g>
    </g>
    <text id="Passed" transform="translate(77.999 213.537)" font-size="62" font-family="OpenSans-Bold, Open Sans" font-weight="700"><tspan x="0" y="0">PASSED</tspan></text>
  </g>
</svg>
