<svg xmlns="http://www.w3.org/2000/svg" width="386.787" height="386.782" viewBox="0 0 386.787 386.782">
  <g id="Group_5210" data-name="Group 5210" transform="translate(-20041 -758)">
    <path id="Path_5566" data-name="Path 5566" d="M386.787,193.391c0,106.809-86.587,193.391-193.391,193.391S0,300.2,0,193.391,86.587,0,193.4,0,386.787,86.582,386.787,193.391" transform="translate(20041 758)" fill="#8bd41f"/>
    <path id="Path_5567" data-name="Path 5567" d="M169.1,331.437c-89.415,0-162.161-72.746-162.161-162.161S79.68,7.11,169.1,7.11,331.257,79.856,331.257,169.276,258.51,331.437,169.1,331.437m0-320.643c-87.384,0-158.477,71.093-158.477,158.482S81.712,327.753,169.1,327.753s158.482-71.089,158.482-158.477S256.479,10.794,169.1,10.794" transform="translate(20065.066 781.89)" fill="#fff"/>
    <path id="Path_5568" data-name="Path 5568" d="M161.166,313.316C77.372,313.316,9.2,245.136,9.2,161.342S77.372,9.373,161.166,9.373,313.14,77.543,313.14,161.342,244.96,313.316,161.166,313.316m0-296.579c-79.736,0-144.605,64.869-144.605,144.605s64.869,144.61,144.605,144.61,144.605-64.874,144.605-144.61S240.9,16.737,161.166,16.737" transform="translate(20072.803 789.627)"/>
    <g id="Group_5208" data-name="Group 5208" transform="translate(-396.764 25)">
      <rect id="Rectangle_3232" data-name="Rectangle 3232" width="171.654" height="212.524" rx="27" transform="translate(20544.764 828.895)" fill="#fff"/>
      <path id="Rectangle_3232_-_Outline" data-name="Rectangle 3232 - Outline" d="M23.32,9.5A13.835,13.835,0,0,0,9.5,23.32V190.011A13.835,13.835,0,0,0,23.32,203.83H147.691a13.835,13.835,0,0,0,13.819-13.819V23.32A13.835,13.835,0,0,0,147.691,9.5H23.32m0-9.5H147.691a23.32,23.32,0,0,1,23.32,23.32V190.011a23.32,23.32,0,0,1-23.32,23.32H23.32A23.32,23.32,0,0,1,0,190.011V23.32A23.32,23.32,0,0,1,23.32,0Z" transform="translate(20545.086 828.274)"/>
      <rect id="Rectangle_3233" data-name="Rectangle 3233" width="65.392" height="29.971" transform="translate(20597.895 835.707)"/>
      <circle id="Ellipse_159" data-name="Ellipse 159" cx="17.71" cy="17.71" r="17.71" transform="translate(20612.881 811.185)"/>
      <path id="Ellipse_159_-_Outline" data-name="Ellipse 159 - Outline" d="M18.137.864a17.545,17.545,0,0,0-6.73,1.326A17.248,17.248,0,0,0,5.916,5.8a16.77,16.77,0,0,0-3.7,5.353,16.511,16.511,0,0,0,0,13.1,16.77,16.77,0,0,0,3.7,5.353,17.248,17.248,0,0,0,5.492,3.614,17.743,17.743,0,0,0,13.461,0,17.248,17.248,0,0,0,5.492-3.614,16.77,16.77,0,0,0,3.7-5.353,16.511,16.511,0,0,0,0-13.1,16.77,16.77,0,0,0-3.7-5.353A17.248,17.248,0,0,0,24.868,2.19,17.545,17.545,0,0,0,18.137.864m0-.864A17.925,17.925,0,0,1,36.275,17.706,17.925,17.925,0,0,1,18.137,35.411,17.925,17.925,0,0,1,0,17.706,17.925,17.925,0,0,1,18.137,0Z" transform="translate(20612.451 811)"/>
      <circle id="Ellipse_160" data-name="Ellipse 160" cx="10.899" cy="10.899" r="10.899" transform="translate(20619.691 817.997)" fill="#fff"/>
      <path id="Ellipse_160_-_Outline" data-name="Ellipse 160 - Outline" d="M10.364.864a9.236,9.236,0,0,0-6.706,2.9A10.1,10.1,0,0,0,.864,10.8a10.1,10.1,0,0,0,2.795,7.036,9.21,9.21,0,0,0,13.411,0A10.1,10.1,0,0,0,19.865,10.8,10.1,10.1,0,0,0,17.07,3.76a9.236,9.236,0,0,0-6.706-2.9m0-.864A10.587,10.587,0,0,1,20.729,10.8a10.587,10.587,0,0,1-10.364,10.8A10.587,10.587,0,0,1,0,10.8,10.587,10.587,0,0,1,10.364,0Z" transform="translate(20620.227 817.91)"/>
      <path id="done_FILL0_wght400_GRAD0_opsz48" d="M13.793,24.984,7.7,18.891l1.17-1.17,4.923,4.923L24.237,12.2l1.17,1.17Z" transform="translate(20560.49 877.05)"/>
      <path id="done_FILL0_wght400_GRAD0_opsz48-2" data-name="done_FILL0_wght400_GRAD0_opsz48" d="M13.793,24.984,7.7,18.891l1.17-1.17,4.923,4.923L24.237,12.2l1.17,1.17Z" transform="translate(20560.49 911.597)"/>
      <path id="done_FILL0_wght400_GRAD0_opsz48-3" data-name="done_FILL0_wght400_GRAD0_opsz48" d="M13.793,24.984,7.7,18.891l1.17-1.17,4.923,4.923L24.237,12.2l1.17,1.17Z" transform="translate(20560.49 946.145)"/>
      <path id="Rectangle_3234" data-name="Rectangle 3234" d="M3.455,3.455V24.183H24.183V3.455H3.455M0,0H27.638V27.638H0Z" transform="translate(20563.225 881.822)"/>
      <path id="Rectangle_3235" data-name="Rectangle 3235" d="M3.455,3.455V24.183H24.183V3.455H3.455M0,0H27.638V27.638H0Z" transform="translate(20563.225 916.37)"/>
      <path id="Rectangle_3236" data-name="Rectangle 3236" d="M3.455,3.455V24.183H24.183V3.455H3.455M0,0H27.638V27.638H0Z" transform="translate(20563.225 950.917)"/>
      <path id="Rectangle_3237" data-name="Rectangle 3237" d="M3.455,3.455V24.183H24.183V3.455H3.455M0,0H27.638V27.638H0Z" transform="translate(20563.225 985.465)"/>
      <g id="Group_5204" data-name="Group 5204" transform="translate(20607.703 885.709)">
        <path id="Line_266" data-name="Line 266" d="M33.684,2.182H0V-3H33.684Z" transform="translate(0 3)"/>
        <path id="Line_269" data-name="Line 269" d="M33.684,2.182H0V-3H33.684Z" transform="translate(0 10.773)"/>
        <path id="Line_268" data-name="Line 268" d="M10.8,2.182H0V-3H10.8Z" transform="translate(80.755 3)"/>
        <path id="Line_271" data-name="Line 271" d="M10.8,2.182H0V-3H10.8Z" transform="translate(36.707 10.773)"/>
        <path id="Line_267" data-name="Line 267" d="M41.025,2.182H0V-3H41.025Z" transform="translate(36.707 3)"/>
        <path id="Line_272" data-name="Line 272" d="M41.025,2.182H0V-3H41.025Z" transform="translate(0 17.683)"/>
        <path id="Line_270" data-name="Line 270" d="M41.025,2.182H0V-3H41.025Z" transform="translate(50.526 10.773)"/>
      </g>
      <g id="Group_5205" data-name="Group 5205" transform="translate(20607.703 920.257)">
        <path id="Line_266-2" data-name="Line 266" d="M33.684,2.182H0V-3H33.684Z" transform="translate(0 3)"/>
        <path id="Line_269-2" data-name="Line 269" d="M33.684,2.182H0V-3H33.684Z" transform="translate(0 10.773)"/>
        <path id="Line_268-2" data-name="Line 268" d="M10.8,2.182H0V-3H10.8Z" transform="translate(80.755 3)"/>
        <path id="Line_271-2" data-name="Line 271" d="M10.8,2.182H0V-3H10.8Z" transform="translate(36.707 10.773)"/>
        <path id="Line_267-2" data-name="Line 267" d="M41.025,2.182H0V-3H41.025Z" transform="translate(36.707 3)"/>
        <path id="Line_272-2" data-name="Line 272" d="M41.025,2.182H0V-3H41.025Z" transform="translate(0 17.683)"/>
        <path id="Line_270-2" data-name="Line 270" d="M41.025,2.182H0V-3H41.025Z" transform="translate(50.526 10.773)"/>
      </g>
      <g id="Group_5206" data-name="Group 5206" transform="translate(20607.703 954.804)">
        <path id="Line_266-3" data-name="Line 266" d="M33.684,2.182H0V-3H33.684Z" transform="translate(0 3)"/>
        <path id="Line_269-3" data-name="Line 269" d="M33.684,2.182H0V-3H33.684Z" transform="translate(0 10.773)"/>
        <path id="Line_268-3" data-name="Line 268" d="M10.8,2.182H0V-3H10.8Z" transform="translate(80.755 3)"/>
        <path id="Line_271-3" data-name="Line 271" d="M10.8,2.182H0V-3H10.8Z" transform="translate(36.707 10.773)"/>
        <path id="Line_267-3" data-name="Line 267" d="M41.025,2.182H0V-3H41.025Z" transform="translate(36.707 3)"/>
        <path id="Line_272-3" data-name="Line 272" d="M41.025,2.182H0V-3H41.025Z" transform="translate(0 17.683)"/>
        <path id="Line_270-3" data-name="Line 270" d="M41.025,2.182H0V-3H41.025Z" transform="translate(50.526 10.773)"/>
      </g>
      <g id="Group_5207" data-name="Group 5207" transform="translate(20607.703 989.352)">
        <path id="Line_266-4" data-name="Line 266" d="M33.684,2.182H0V-3H33.684Z" transform="translate(0 3)"/>
        <path id="Line_269-4" data-name="Line 269" d="M33.684,2.182H0V-3H33.684Z" transform="translate(0 10.773)"/>
        <path id="Line_268-4" data-name="Line 268" d="M10.8,2.182H0V-3H10.8Z" transform="translate(80.755 3)"/>
        <path id="Line_271-4" data-name="Line 271" d="M10.8,2.182H0V-3H10.8Z" transform="translate(36.707 10.773)"/>
        <path id="Line_267-4" data-name="Line 267" d="M41.025,2.182H0V-3H41.025Z" transform="translate(36.707 3)"/>
        <path id="Line_272-4" data-name="Line 272" d="M41.025,2.182H0V-3H41.025Z" transform="translate(0 17.683)"/>
        <path id="Line_270-4" data-name="Line 270" d="M41.025,2.182H0V-3H41.025Z" transform="translate(50.526 10.773)"/>
      </g>
    </g>
    <g id="Group_5209" data-name="Group 5209" transform="translate(-46.281 -29.566)">
      <path id="Path_5569" data-name="Path 5569" d="M40.313,2.841l3.873,4.927,6.251-.405-3.486,5.211L49.272,18.4,43.241,16.69,38.413,20.7l-.239-6.274-5.3-3.351L38.76,8.916Z" transform="translate(20202.197 797.135)"/>
      <path id="Path_5570" data-name="Path 5570" d="M30.95,5.257l4.8,4.035L41.791,7.63l-2.36,5.805,3.454,5.233-6.256-.446-3.914,4.9-1.509-6.08-5.86-2.211,5.319-3.306Z" transform="translate(20175.813 805.6)"/>
      <path id="Path_5571" data-name="Path 5571" d="M22.115,9.153l5.5,3L33.2,9.324,32.046,15.49l4.423,4.445-6.211.8-2.864,5.585L24.7,20.647l-6.184-1,4.558-4.3Z" transform="translate(20151.895 819.252)"/>
      <path id="Path_5572" data-name="Path 5572" d="M14.164,16.135,20.149,18l4.927-3.873.072,6.26,5.211,3.495-5.941,2.009-1.711,6.026-3.752-5.026-6.256.23,3.626-5.107Z" transform="translate(20131.498 836.693)"/>
      <path id="Path_5573" data-name="Path 5573" d="M7.973,24.326l6.233.653,4.076-4.761,1.3,6.121,5.792,2.41-5.427,3.13-.5,6.256-4.661-4.2L8.7,35.392l2.549-5.724Z" transform="translate(20114.936 858.025)"/>
      <path id="Path_5574" data-name="Path 5574" d="M4.429,33.354l6.238-.6,3.04-5.481,2.5,5.747,6.161,1.194-4.7,4.157.766,6.22-5.409-3.18L7.348,44.046,8.7,37.934Z" transform="translate(20102.52 882.727)"/>
      <path id="Path_5575" data-name="Path 5575" d="M2.411,42.764,8.4,40.9l1.851-5.981,3.621,5.107,6.274-.081L16.4,44.966l2.018,5.941-5.941-2.013L7.451,52.645l.081-6.265Z" transform="translate(20095.447 909.528)"/>
      <path id="Path_5576" data-name="Path 5576" d="M2.061,52.431l5.472-3.072L8.1,43.126l4.6,4.247,6.121-1.378-2.621,5.7,3.2,5.387-6.229-.734-4.135,4.7L7.821,54.9Z" transform="translate(20094.221 938.287)"/>
      <path id="Path_5577" data-name="Path 5577" d="M3.218,61.5l4.716-4.121-.721-6.229,5.373,3.216,5.706-2.612-1.4,6.116,4.243,4.607-6.247.563L11.82,68.5l-2.459-5.76Z" transform="translate(20098.273 966.401)"/>
      <path id="Path_5578" data-name="Path 5578" d="M6.02,71.064l3.792-4.99L7.844,60.119l5.914,2.063,5.058-3.711-.131,6.269L23.775,68.4l-6,1.815-1.91,5.959L12.29,71.037Z" transform="translate(20108.094 992.055)"/>
      <path id="Path_5579" data-name="Path 5579" d="M10.587,79.891l2.734-5.648-3.1-5.45,6.206.856,4.225-4.639,1.108,6.17,5.715,2.581-5.531,2.964-.685,6.229-4.522-4.337Z" transform="translate(20122.801 1014.966)"/>
      <path id="Path_5580" data-name="Path 5580" d="M18.009,87.214l1.572-6.071-4.108-4.729,6.247-.383,3.229-5.373,2.3,5.832,6.107,1.41-4.837,3.99.54,6.242-5.283-3.369Z" transform="translate(20141.219 1034.756)"/>
      <path id="Path_5581" data-name="Path 5581" d="M26.434,92.694l.347-6.256-4.963-3.833,6.053-1.6L29.988,75.1l3.4,5.261,6.265.189-3.959,4.86,1.766,6.013-5.851-2.265Z" transform="translate(20163.445 1050.312)"/>
      <path id="Path_5582" data-name="Path 5582" d="M35.627,96.15l-.919-6.2L29.079,87.2,34.686,84.4l.887-6.206,4.387,4.477,6.175-1.081-2.9,5.558,2.928,5.54-6.175-1.045Z" transform="translate(20188.889 1061.175)"/>
      <path id="Path_5583" data-name="Path 5583" d="M45.081,97.464,42.91,91.582l-6.071-1.54,4.914-3.882-.405-6.265,5.211,3.486,5.823-2.319-1.7,6.04,4,4.81-6.26.248Z" transform="translate(20216.078 1067.119)"/>
      <path id="Path_5584" data-name="Path 5584" d="M54.681,97.455l-3.346-5.3-6.26-.252,4.008-4.81-1.7-6.04,5.828,2.319,5.215-3.477-.414,6.26,4.918,3.878-6.076,1.54Z" transform="translate(20244.936 1067.12)"/>
      <path id="Path_5585" data-name="Path 5585" d="M63.548,96.152l-4.364-4.5L53,92.693l2.932-5.531-2.9-5.567,6.17,1.081L63.6,78.2l.883,6.215L70.088,87.2l-5.621,2.756Z" transform="translate(20272.721 1061.181)"/>
      <path id="Path_5586" data-name="Path 5586" d="M73.322,92.7l-5.179-3.54L62.3,91.417l1.761-6.008L60.1,80.549l6.269-.189,3.4-5.26L71.885,81l6.049,1.6L72.971,86.44Z" transform="translate(20297.578 1050.318)"/>
      <path id="Path_5587" data-name="Path 5587" d="M81.79,87.219l-5.774-2.45-5.278,3.364.536-6.238-4.842-3.99,6.112-1.41,2.3-5.837,3.234,5.378,6.251.383-4.108,4.729Z" transform="translate(20319.768 1034.758)"/>
      <path id="Path_5588" data-name="Path 5588" d="M88.706,79.884l-6.134-1.266-4.526,4.337-.689-6.229L71.83,73.763l5.711-2.581,1.112-6.17,4.225,4.639,6.2-.851-3.1,5.445Z" transform="translate(20338.682 1014.973)"/>
      <path id="Path_5589" data-name="Path 5589" d="M93.674,71.064,87.4,71.037l-3.572,5.148-1.905-5.968L75.915,68.4,81,64.74l-.126-6.269,5.058,3.716,5.914-2.063-1.964,5.95Z" transform="translate(20352.996 992.055)"/>
      <path id="Path_5590" data-name="Path 5590" d="M96.614,61.506l-6.152,1.23L88,68.5l-3.072-5.45-6.247-.567,4.243-4.621-1.392-6.1,5.7,2.608,5.378-3.211-.721,6.224Z" transform="translate(20362.682 966.409)"/>
      <path id="Path_5591" data-name="Path 5591" d="M97.312,52.431,91.547,54.9l-1.221,6.152L86.2,56.345l-6.229.739,3.207-5.391L80.548,46l6.116,1.383,4.6-4.256.567,6.242Z" transform="translate(20367.193 938.287)"/>
      <path id="Path_5592" data-name="Path 5592" d="M97.262,42.772l-5.121,3.612.081,6.26L87.2,48.9,81.26,50.915l2.018-5.936-3.747-5.026,6.274.086,3.617-5.121,1.856,5.99Z" transform="translate(20365.664 909.527)"/>
      <path id="Path_5593" data-name="Path 5593" d="M95.4,33.354l-4.274,4.589,1.356,6.112L86.8,41.406l-5.4,3.18.761-6.211-4.693-4.157,6.157-1.2,2.5-5.747,3.04,5.481Z" transform="translate(20358.434 882.727)"/>
      <path id="Path_5594" data-name="Path 5594" d="M91.446,24.326l-3.27,5.351,2.549,5.715-6.094-1.45L79.97,38.135l-.5-6.251-5.432-3.135,5.8-2.4,1.306-6.13,4.067,4.761Z" transform="translate(20346.436 858.025)"/>
      <path id="Path_5595" data-name="Path 5595" d="M85.451,16.135l-2.162,5.882,3.626,5.116-6.256-.239-3.747,5.026L75.2,25.895l-5.936-2.009,5.206-3.495.077-6.26L79.465,18Z" transform="translate(20329.674 836.693)"/>
      <path id="Path_5596" data-name="Path 5596" d="M77.732,9.155l-.968,6.193,4.558,4.3-6.184.991-2.684,5.675-2.864-5.58-6.215-.806L67.8,15.482,66.639,9.326l5.589,2.833Z" transform="translate(20309.051 819.257)"/>
      <path id="Path_5597" data-name="Path 5597" d="M68.573,5.257l.279,6.265,5.328,3.306-5.864,2.211L66.8,23.119l-3.914-4.9-6.251.446,3.45-5.233L57.737,7.63l6.04,1.662Z" transform="translate(20285.451 805.6)"/>
      <path id="Path_5598" data-name="Path 5598" d="M59.229,2.841l1.549,6.076,5.882,2.157-5.3,3.351L61.125,20.7,56.3,16.69,50.266,18.4l2.319-5.828L49.1,7.363l6.247.41Z" transform="translate(20259.055 797.135)"/>
      <path id="Path_5599" data-name="Path 5599" d="M49.919,2.084l2.774,5.625,6.2.9-4.486,4.369,1.063,6.184-5.553-2.914L44.37,19.158l1.063-6.184L40.947,8.605l6.2-.9Z" transform="translate(20230.475 794.482)"/>
    </g>
  </g>
</svg>
