<svg width="18" height="20" viewBox="0 0 18 20" fill="none" xmlns="http://www.w3.org/2000/svg">
<path fill-rule="evenodd" clip-rule="evenodd" d="M16.2013 2.32867C16.9461 2.57382 17.4493 3.26122 17.4493 4.02608L17.4997 10.6637C17.5097 12.674 16.775 14.6253 15.4263 16.1561C14.8123 16.8621 14.0172 17.4603 13.0107 17.9996L9.43772 19.9117C9.32701 19.9706 9.20623 20 9.08545 20C8.96467 20 8.83383 19.9706 8.72312 19.9117L5.11991 18.0486C4.10336 17.5191 3.30824 16.9307 2.68422 16.2345C1.3154 14.7244 0.550472 12.773 0.540408 10.7628L0.500148 4.12316C0.490083 3.3583 0.993325 2.67286 1.72806 2.41693L8.34065 0.103698C8.73318 -0.034566 9.16597 -0.034566 9.56856 0.103698L16.2013 2.32867ZM11.4205 12.0866C11.7124 11.8022 11.7124 11.3315 11.4205 11.0471L10.0617 9.72236L11.4205 8.39954C11.7124 8.11516 11.7124 7.65428 11.4205 7.35912C11.1286 7.07475 10.6455 7.07475 10.3536 7.35912L8.99488 8.68391L7.63612 7.35912C7.34424 7.07475 6.8712 7.07475 6.56925 7.35912C6.27737 7.65428 6.27737 8.11516 6.56925 8.39954L7.928 9.72236L6.56925 11.0471C6.27737 11.3315 6.27737 11.8022 6.56925 12.0866C6.72022 12.2337 6.91146 12.3013 7.10269 12.3013C7.30399 12.3013 7.49522 12.2337 7.63612 12.0866L8.99488 10.7628L10.3536 12.0866C10.5046 12.2337 10.6958 12.3013 10.8871 12.3013C11.0783 12.3013 11.2796 12.2337 11.4205 12.0866Z" />
</svg>
