<svg id="Sad" xmlns="http://www.w3.org/2000/svg" width="243.116" height="243.116" viewBox="0 0 243.116 243.116">
  <path id="Path_7992" data-name="Path 7992" d="M121.558,243.116A121.558,121.558,0,1,0,0,121.558,121.558,121.558,0,0,0,121.558,243.116Z" fill="#dc143c"/>
  <path id="Path_7993" data-name="Path 7993" d="M104.094,202.121A97.9,97.9,0,0,1,6.238,104.265c0-54.007,43.849-98.025,97.856-98.025A97.9,97.9,0,0,1,201.95,104.1C201.95,158.1,158.1,202.121,104.094,202.121Zm0-182.337A84.312,84.312,0,1,0,188.406,104.1,84.538,84.538,0,0,0,104.094,19.784Z" transform="translate(17.459 17.463)" fill="#fff"/>
  <path id="Path_7994" data-name="Path 7994" d="M105.068,31.866a6.776,6.776,0,0,1-3.178,13.17c-2.006-.362-48.344-9.273-61.517,43.81a6.907,6.907,0,0,1-8.174,5,6.791,6.791,0,0,1-5-8.174c16.263-65.927,76.84-53.9,77.494-53.726C104.9,31.823,104.9,31.823,105.068,31.866Z" transform="translate(75.666 86.693)" fill="#fff"/>
  <path id="Path_7995" data-name="Path 7995" d="M26.017,38.547H24.155a6.772,6.772,0,0,1,0-13.544h1.862a6.772,6.772,0,0,1,0,13.544Z" transform="translate(48.649 69.975)" fill="#fff"/>
  <path id="Path_7996" data-name="Path 7996" d="M41.525,33.644H39.663a6.772,6.772,0,1,1,0-13.544h1.862a6.772,6.772,0,0,1,0,13.544Z" transform="translate(92.051 56.254)" fill="#fff"/>
</svg>
