<svg width="17" height="14" viewBox="0 0 17 14" fill="none" xmlns="http://www.w3.org/2000/svg">
<path d="M15.9511 0.0754655L9.50853 3.26172C8.98507 3.51662 8.94481 4.23883 9.38773 4.5787L10.9581 5.72575L8.74348 9.03945L5.48195 4.91857C5.03903 4.36628 4.23371 4.45125 3.87132 5.00354L0.166867 11.0787C-0.114993 11.546 -0.0344619 12.1832 0.368196 12.5231L1.13325 13.1603C1.61643 13.5427 2.30095 13.4577 2.62308 12.9479L4.87796 9.50677L8.17976 13.6277C8.58241 14.1375 9.38773 14.1375 9.75012 13.5427L13.6156 7.67999L15.2665 8.86952C15.7095 9.20939 16.3537 8.912 16.4342 8.31724L16.998 0.840166C17.0382 0.245399 16.4745 -0.179435 15.9511 0.0754655Z" fill="#0052B0"/>
</svg>
