<svg id="Group_5232" data-name="Group 5232" xmlns="http://www.w3.org/2000/svg" width="157" height="157" viewBox="0 0 157 157">
  <circle id="Ellipse_164" data-name="Ellipse 164" cx="78.5" cy="78.5" r="78.5" fill="#1c1ca8"/>
  <path id="Exclude" d="M0,14.227A14.227,14.227,0,0,1,14.227,0H71.135A14.227,14.227,0,0,1,85.362,14.227v6.007H0ZM0,27.821H85.362V54.062A14.227,14.227,0,0,1,71.135,68.288H14.227A14.227,14.227,0,0,1,0,54.062ZM12.877,50.583a2.529,2.529,0,0,0,0,5.058H33.685a2.529,2.529,0,0,0,0-5.058Z" transform="translate(36 44)" fill="#fff" fill-rule="evenodd"/>
</svg>
