<svg width="15" height="17" viewBox="0 0 15 17" fill="none" xmlns="http://www.w3.org/2000/svg">
<path d="M14.1079 3.35114C14.1079 2.7145 13.689 2.14234 13.0691 1.93828L7.54827 0.0863137C7.21317 -0.0287712 6.85294 -0.0287712 6.52622 0.0863137L1.02218 2.01174C0.410622 2.22477 -0.00825411 2.7953 0.000123421 3.43194L0.0336335 8.95847C0.042011 10.6317 0.678703 12.2559 1.81805 13.5129C2.33745 14.0924 2.99928 14.5821 3.84541 15.0229L6.84456 16.5737C6.93671 16.6226 7.04562 16.6471 7.14615 16.6471C7.24668 16.6471 7.34721 16.6226 7.43937 16.5737L10.4134 14.9821C11.2511 14.5332 11.913 14.0353 12.424 13.4476C13.5466 12.1735 14.1581 10.5493 14.1498 8.87603L14.1079 3.35114Z" fill="#8BD41F"/>
</svg>
