<svg width="19" height="19" viewBox="0 0 19 19" fill="none" xmlns="http://www.w3.org/2000/svg">
<path d="M15.121 11.2275C14.8749 11.466 14.7619 11.8108 14.8179 12.1489L15.6624 16.8223C15.7336 17.2184 15.5664 17.6192 15.2349 17.8482C14.9101 18.0856 14.4779 18.1141 14.1236 17.9242L9.91659 15.7299C9.77031 15.6521 9.60788 15.6103 9.44165 15.6055H9.18423C9.09494 15.6188 9.00756 15.6473 8.92777 15.691L4.71982 17.8957C4.51179 18.0001 4.27622 18.0372 4.0454 18.0001C3.48308 17.8938 3.10788 17.358 3.20001 16.7929L4.0454 12.1195C4.10145 11.7785 3.98841 11.4318 3.74239 11.1895L0.312391 7.86497C0.0255287 7.58666 -0.0742083 7.16871 0.0568746 6.79161C0.184158 6.41546 0.509016 6.14095 0.901314 6.07921L5.6222 5.39435C5.98125 5.3573 6.29661 5.13883 6.45809 4.81587L8.53832 0.550928C8.58771 0.45594 8.65135 0.368552 8.72829 0.294462L8.81378 0.22797C8.85842 0.178577 8.90972 0.137732 8.96671 0.104486L9.07025 0.0664913L9.23173 0H9.63162C9.98878 0.0370452 10.3032 0.250767 10.4675 0.569926L12.5753 4.81587C12.7273 5.12648 13.0227 5.3421 13.3637 5.39435L18.0846 6.07921C18.4835 6.1362 18.8169 6.41166 18.949 6.79161C19.0734 7.17251 18.9661 7.59046 18.6735 7.86497L15.121 11.2275Z" fill="#5756E9"/>
</svg>
