<svg width="20" height="20" viewBox="0 0 20 20" fill="none" xmlns="http://www.w3.org/2000/svg">
<path d="M8.45166 10.8134C9.77949 12.606 12.3356 12.9711 14.1281 11.6433C14.2941 11.5437 14.4269 11.4109 14.5597 11.2781L16.9829 8.85487C18.5431 7.26149 18.4767 4.67224 16.8834 3.14524C15.3232 1.61825 12.8335 1.61825 11.2733 3.14524L9.87907 4.47307" stroke="#0097F7"  stroke-linecap="round" stroke-linejoin="round"/>
<path d="M11.6717 9.1866C10.3439 7.39404 7.78785 7.02889 5.99528 8.35671C5.8293 8.4563 5.69652 8.58908 5.56374 8.72186L3.14046 11.1451C1.58026 12.7385 1.64665 15.3278 3.24004 16.8548C4.80024 18.3818 7.28991 18.3818 8.85011 16.8548L10.2443 15.4605"  stroke-width="2.5" stroke-linecap="round" stroke-linejoin="round"/>
</svg>
